<svg id="Livello_1" data-name="Livello 1" xmlns="http://www.w3.org/2000/svg" viewBox="0 0 1162.62 1425.04"><defs><style>.cls-1{fill:#f06024;}.cls-2{fill:#fde710;}.cls-3{fill:#30449b;}.cls-11,.cls-13,.cls-14,.cls-15,.cls-16,.cls-4,.cls-5{isolation:isolate;}.cls-4,.cls-5{font-size:14px;font-family:Oswald-Light, Oswald;}.cls-4{fill:#070808;}.cls-6{fill:#f24452;}.cls-13,.cls-7{fill:#011ac2;}.cls-10,.cls-11,.cls-15,.cls-8{fill:#fff;}.cls-8{stroke:#f24452;}.cls-10,.cls-12,.cls-17,.cls-18,.cls-20,.cls-21,.cls-8,.cls-9{stroke-miterlimit:10;}.cls-10,.cls-17,.cls-18,.cls-8{stroke-width:3px;}.cls-12,.cls-17,.cls-18,.cls-20,.cls-21,.cls-9{fill:none;}.cls-9{stroke:#fff;}.cls-10,.cls-18{stroke:#ffe919;}.cls-11,.cls-13{font-size:22px;font-family:Rajdhani-Medium, Rajdhani;}.cls-12,.cls-17,.cls-20,.cls-21{stroke:#011ac2;}.cls-15,.cls-16{font-size:18px;font-family:Rajdhani-Regular, Rajdhani;}.cls-19{fill:#ffe919;}.cls-20{stroke-width:2px;}.cls-21{stroke-width:0.3px;}</style></defs><title>C_Timeline</title><g id="Legenda"><rect class="cls-1" x="213.71" y="0.44" width="13" height="13"/><rect class="cls-2" x="363.93" y="0.61" width="13" height="13"/><rect class="cls-3" x="488.3" y="0.01" width="13" height="13"/><text class="cls-4" transform="translate(238.6 13.3)">United States</text><text class="cls-5" transform="translate(513.2 12.67)">Other countries</text><text class="cls-5" transform="translate(386.82 13.17)">Europe</text><rect class="cls-6" x="213.71" y="0.44" width="13" height="13"/><rect class="cls-2" x="363.93" y="0.61" width="13" height="13"/><rect class="cls-3" x="488.3" y="0.01" width="13" height="13"/></g><g id="Livello_7" data-name="Livello 7"><rect class="cls-7" x="282.83" y="162.04" width="256.17" height="71"/><rect class="cls-8" x="1.5" y="352.54" width="250.85" height="71"/><rect class="cls-6" x="28" y="362.04" width="35" height="25.53"/><rect class="cls-9" x="441.5" y="197.04" width="56" height="25.53"/><rect class="cls-10" x="584.07" y="737.54" width="306.43" height="71"/><rect class="cls-7" x="189.7" y="309.54" width="61.8" height="33.68"/><text class="cls-11" transform="translate(196.87 333.06)">2005</text><rect class="cls-12" x="283.7" y="119.54" width="61.8" height="33.68"/><text class="cls-13" transform="translate(291.75 143.05)">2003</text><g class="cls-14"><text class="cls-15" transform="translate(294.94 191.41)">The term Net Neutrality is used </text><text class="cls-15" transform="translate(294.94 215.41)">for the first time by Tim Wu</text></g><rect class="cls-8" x="399.05" y="502.54" width="253.45" height="71"/><g class="cls-14"><text class="cls-16" transform="translate(414.89 529.92)">Comcast is accused by FCC to </text><text class="cls-16" transform="translate(414.89 553.92)">slowing BitTorrent speeds</text></g><rect class="cls-7" x="398.7" y="459.54" width="61.8" height="33.68"/><text class="cls-11" transform="translate(406.9 482.06)">2007</text><g class="cls-14"><text class="cls-16" transform="translate(31.81 381.22)">FCC realise the first rule to </text><text class="cls-16" transform="translate(17.25 405.22)">define an early concept of NN</text></g><rect class="cls-7" x="308.7" y="594.54" width="61.8" height="33.68"/><text class="cls-11" transform="translate(317.71 617.06)">2010</text><g class="cls-14"><text class="cls-16" transform="translate(80.45 670.49)">The National Congress of Chile is the </text><text class="cls-16" transform="translate(98.29 694.49)">first country in the world to amend</text><text class="cls-16" transform="translate(68.98 718.49)">its telecommunications law in order to </text><text class="cls-16" transform="translate(151.66 742.49)">preserve network neutrality</text></g><rect class="cls-17" x="52.5" y="639.14" width="317" height="126.4"/><rect class="cls-8" x="153.5" y="1004.54" width="337" height="71"/><rect class="cls-8" x="631.5" y="1057.54" width="265.5" height="71"/><rect class="cls-17" x="200.5" y="1352.54" width="405" height="71"/><rect class="cls-18" x="351.5" y="1284.54" width="253" height="54"/><rect class="cls-10" x="631.5" y="1142.54" width="265.5" height="71"/><rect class="cls-17" x="210.5" y="1088.54" width="280" height="42"/><rect class="cls-7" x="511.7" y="737.54" width="61.8" height="33.68"/><rect class="cls-7" x="428.7" y="876.54" width="61.8" height="33.68"/><text class="cls-11" transform="translate(521.12 760.06)">2012</text><rect class="cls-19" x="589" y="745.04" width="54" height="25.53"/><line class="cls-20" x1="266" y1="120.04" x2="266" y2="342.04"/><rect class="cls-7" x="259.5" y="119.04" width="13" height="2"/><line class="cls-20" x1="384" y1="460.04" x2="384" y2="626.04"/><line class="cls-20" x1="500" y1="740.04" x2="500" y2="906.04"/><line class="cls-20" x1="617" y1="1024.04" x2="617" y2="1269.04"/><line class="cls-20" x1="265.5" y1="341.54" x2="384" y2="461.04"/><line class="cls-20" x1="384.5" y1="624.54" x2="500.5" y2="740.54"/><line class="cls-20" x1="501.5" y1="905.54" x2="617.5" y2="1021.54"/><text class="cls-11" transform="translate(438.64 899.3)">2014</text><g class="cls-14"><text class="cls-16" transform="translate(174.91 1032.42)">Netflix pay Comcast and Verizon to serve</text><text class="cls-16" transform="translate(196.49 1056.42)">his customer with a better connection</text></g><text class="cls-16" transform="translate(233.62 1113.94)">Protest and general mobilization</text><rect class="cls-7" x="630.7" y="1018.91" width="57.43" height="26.56"/><text class="cls-11" transform="translate(639.05 1038.3)">2015</text><rect class="cls-7" x="547.7" y="1244.91" width="57.43" height="26.56"/><text class="cls-11" transform="translate(555.87 1264.3)">2016</text><g class="cls-14"><text class="cls-16" transform="translate(650.35 1085.74)">Net Neutrality forced to be </text><text class="cls-16" transform="translate(650.35 1109.74)">recongized in the Unite States</text></g><g class="cls-14"><text class="cls-16" transform="translate(650.35 1169.41)">European Parliament pourpose </text><text class="cls-16" transform="translate(650.35 1193.41)">net neutrality regulation</text></g><rect class="cls-7" x="262.17" y="335.5" width="7.83" height="7.83"/><rect class="cls-7" x="496.17" y="737.5" width="7.83" height="7.83"/><rect class="cls-7" x="380.17" y="620.5" width="7.83" height="7.83"/><rect class="cls-7" x="380.17" y="459.5" width="7.83" height="7.83"/><rect class="cls-7" x="496.17" y="902.5" width="7.83" height="7.83"/><rect class="cls-7" x="613.17" y="1018.5" width="7.83" height="7.83"/><rect class="cls-7" x="613.17" y="1263.5" width="7.83" height="7.83"/><g class="cls-14"><text class="cls-16" transform="translate(223.36 1381.39)">Telecom Regulatory Authority of India (TRAI) issue </text><text class="cls-16" transform="translate(245.86 1405.39)">binding rules that protect strong Net Neutrality</text></g><text class="cls-16" transform="translate(374.69 1316.24)">BEREC implements guidlines</text><polyline class="cls-21" points="1162.62 1030.54 1162.62 1030.54 1162.62 1030.54 1162.62 1030.54 1162.62 1030.54 1162.62 1030.54 1162.62 1030.54 1162.62 1030.54"/><g class="cls-14"><text class="cls-16" transform="translate(593.35 763.81)">BEREC published guidelines about the</text><text class="cls-16" transform="translate(593.35 787.81)">quality of internet service in Europe</text></g><rect class="cls-8" x="115.5" y="923.13" width="374" height="63.72"/><g class="cls-14"><text class="cls-16" transform="translate(137.18 946.48)">American Telecomunication provider pourpose </text><text class="cls-16" transform="translate(150.46 970.48)">a double contract creating a preferential line</text></g></g></svg>