<?xml version="1.0" encoding="utf-8"?>
<!-- Generator: Adobe Illustrator 21.1.0, SVG Export Plug-In . SVG Version: 6.00 Build 0)  -->
<svg version="1.1" xmlns="http://www.w3.org/2000/svg" xmlns:xlink="http://www.w3.org/1999/xlink" x="0px" y="0px"
	 viewBox="0 0 866 1114" style="enable-background:new 0 0 866 1114;" xml:space="preserve">
<style type="text/css">
	.st0{font-family:'Rajdhani-Regular';}
	.st1{font-size:12px;}
	.st2{fill:none;stroke:#9BA9EB;stroke-width:2;stroke-linejoin:round;stroke-miterlimit:10;}
	.st3{fill:none;}
	.st4{fill:none;stroke:#FF5F19;stroke-width:4;stroke-linecap:round;stroke-miterlimit:10;}
	.st5{fill:#FF5F19;}
	.st6{opacity:0.15;fill:#DEE2F8;}
	.st7{fill:#808080;}
	.st8{fill:none;stroke:#9BA9EB;stroke-width:2;stroke-linecap:round;stroke-miterlimit:10;}
	.st9{fill:#DFDFDF;stroke:#000000;stroke-width:0.5;stroke-miterlimit:10;}
	.st10{fill:#202020;stroke:#000000;stroke-width:0.5;stroke-miterlimit:10;}
	.st11{fill:none;stroke:#000000;stroke-miterlimit:10;}
	.st12{fill:none;stroke:#000000;stroke-width:0.5;stroke-miterlimit:10;}
	.st13{fill:none;stroke:#000000;stroke-width:0.5;stroke-miterlimit:10;stroke-dasharray:1.9919,9.9593;}
	.st14{fill:none;stroke:#000000;stroke-width:0.5;stroke-miterlimit:10;stroke-dasharray:2,10;}
	.st15{fill:none;stroke:#666666;stroke-width:0.5;stroke-miterlimit:10;}
	.st16{fill:none;stroke:#666666;stroke-width:0.5;stroke-miterlimit:10;stroke-dasharray:2.0155,10.0774;}
	.st17{fill:none;stroke:#666666;stroke-width:0.5;stroke-miterlimit:10;stroke-dasharray:2.0139,10.0697;}
</style>
<g id="COUNTRIES">
	<g id="Romania_1_">
		<g>
			<text transform="matrix(1 0 0 1 737.0205 563.9263)" class="st0 st1">Romania</text>
		</g>
		<g>
			<line class="st2" x1="184.1" y1="795.3" x2="75.4" y2="796.3"/>
			<line class="st2" x1="292.9" y1="722.5" x2="184.1" y2="795.3"/>
			<line class="st2" x1="401.7" y1="674.3" x2="292.9" y2="722.5"/>
			<line class="st2" x1="510.4" y1="620.8" x2="401.7" y2="674.3"/>
			<line class="st2" x1="619.2" y1="599.9" x2="510.4" y2="620.8"/>
			<line class="st2" x1="728" y1="553.5" x2="619.2" y2="599.9"/>
		</g>
	</g>
	<g id="Bulgaria">
		<g id="Livello_53">
		</g>
		<g>
			<line class="st2" x1="184.1" y1="696.5" x2="75.4" y2="718.2"/>
			<line class="st2" x1="292.9" y1="647.8" x2="184.1" y2="696.5"/>
			<line class="st2" x1="401.7" y1="633.4" x2="292.9" y2="647.8"/>
			<line class="st2" x1="510.4" y1="603.3" x2="401.7" y2="633.4"/>
			<line class="st2" x1="619.2" y1="588.8" x2="510.4" y2="603.3"/>
			<line class="st2" x1="728" y1="549.5" x2="619.2" y2="588.8"/>
		</g>
		<text transform="matrix(1 0 0 1 737.0205 549.9263)" class="st0 st1">Bulgaria</text>
	</g>
	<g id="Italy">
		<g>
			<line class="st2" x1="184.1" y1="616.9" x2="75.4" y2="625.7"/>
			<line class="st2" x1="292.9" y1="599.1" x2="184.1" y2="616.9"/>
			<line class="st2" x1="401.7" y1="566.4" x2="292.9" y2="599.1"/>
			<line class="st2" x1="510.4" y1="601.4" x2="401.7" y2="566.4"/>
			<line class="st2" x1="619.2" y1="570.4" x2="510.4" y2="601.4"/>
			<line class="st2" x1="728" y1="530.9" x2="619.2" y2="570.4"/>
		</g>
		<g>
			<text transform="matrix(1 0 0 1 736.0205 531.9263)" class="st0 st1">Italy</text>
		</g>
	</g>
	<g id="Greece">
		<text transform="matrix(1 0 0 1 739.0205 437.9263)" class="st0 st1">Greece</text>
		<g>
			<line class="st2" x1="184.1" y1="650.9" x2="75.4" y2="740.9"/>
			<line class="st2" x1="292.9" y1="608.5" x2="184.1" y2="650.9"/>
			<line class="st2" x1="401.7" y1="549" x2="292.9" y2="608.5"/>
			<line class="st2" x1="510.4" y1="507.5" x2="401.7" y2="549"/>
			<line class="st2" x1="619.2" y1="462.5" x2="510.4" y2="507.5"/>
			<line class="st2" x1="728" y1="434.6" x2="619.2" y2="462.5"/>
		</g>
	</g>
	<g id="Portugal">
		<g>
			<line class="st2" x1="184.1" y1="606.2" x2="75.4" y2="630.4"/>
			<line class="st2" x1="292.9" y1="543.1" x2="184.1" y2="606.2"/>
			<line class="st2" x1="401.7" y1="521.3" x2="292.9" y2="543.1"/>
			<line class="st2" x1="510.4" y1="490.4" x2="401.7" y2="521.3"/>
			<line class="st2" x1="619.2" y1="440.2" x2="510.4" y2="490.4"/>
			<line class="st2" x1="728" y1="418" x2="619.2" y2="440.2"/>
		</g>
		<g>
			<text transform="matrix(1 0 0 1 739.0205 421.9263)" class="st0 st1">Portugal</text>
		</g>
	</g>
	<g id="Croatia">
		<g>
			<line class="st2" x1="184.1" y1="574.7" x2="75.4" y2="590.1"/>
			<line class="st2" x1="292.9" y1="523.2" x2="184.1" y2="574.7"/>
			<line class="st2" x1="401.7" y1="463.6" x2="292.9" y2="523.2"/>
			<line class="st2" x1="510.4" y1="441" x2="401.7" y2="463.6"/>
			<line class="st2" x1="619.2" y1="425.7" x2="510.4" y2="441"/>
			<line class="st2" x1="728" y1="389.8" x2="619.2" y2="425.7"/>
		</g>
		<text transform="matrix(1 0 0 1 739.0205 398.9263)" class="st0 st1">Croatia</text>
	</g>
	<g id="Poland">
		<g>
			<line class="st2" x1="184.1" y1="523.1" x2="75.4" y2="518.5"/>
			<line class="st2" x1="292.9" y1="518.6" x2="184.1" y2="523.1"/>
			<line class="st2" x1="401.7" y1="512" x2="292.9" y2="518.6"/>
			<line class="st2" x1="510.4" y1="465.4" x2="401.7" y2="512"/>
			<line class="st2" x1="619.2" y1="448.1" x2="510.4" y2="465.4"/>
			<line class="st2" x1="728" y1="382.3" x2="619.2" y2="448.1"/>
		</g>
		<text transform="matrix(1 0 0 1 739.0205 384.9263)" class="st0 st1">Poland</text>
	</g>
	<g id="Lithuania">
		<g>
			<line class="st2" x1="184.1" y1="502.1" x2="75.4" y2="521"/>
			<line class="st2" x1="292.9" y1="457.6" x2="184.1" y2="502.1"/>
			<line class="st2" x1="401.7" y1="442.4" x2="292.9" y2="457.6"/>
			<line class="st2" x1="510.4" y1="396.8" x2="401.7" y2="442.4"/>
			<line class="st2" x1="619.2" y1="406.1" x2="510.4" y2="396.8"/>
			<line class="st2" x1="728" y1="368.9" x2="619.2" y2="406.1"/>
		</g>
		<g>
			<text transform="matrix(1 0 0 1 739.0205 371.9263)" class="st0 st1">Lithuania</text>
		</g>
	</g>
	<g id="Slovenia">
		<g>
			<line class="st2" x1="184.1" y1="456.2" x2="75.4" y2="423.2"/>
			<line class="st2" x1="292.9" y1="443.7" x2="184.1" y2="456.2"/>
			<line class="st2" x1="401.7" y1="390" x2="292.9" y2="443.7"/>
			<line class="st2" x1="510.4" y1="403.5" x2="401.7" y2="390"/>
			<line class="st2" x1="619.2" y1="384.8" x2="510.4" y2="403.5"/>
			<line class="st2" x1="728" y1="355" x2="619.2" y2="384.8"/>
		</g>
		<g>
			<text transform="matrix(1 0 0 1 739.0205 358.9263)" class="st0 st1">Slovenia</text>
		</g>
	</g>
	<g id="Austria">
		<g>
			<line class="st2" x1="184.1" y1="586.3" x2="75.4" y2="634.3"/>
			<line class="st2" x1="292.9" y1="538.8" x2="184.1" y2="586.3"/>
			<line class="st2" x1="401.7" y1="479.6" x2="292.9" y2="538.8"/>
			<line class="st2" x1="510.4" y1="431.5" x2="401.7" y2="479.6"/>
			<line class="st2" x1="619.2" y1="401.9" x2="510.4" y2="431.5"/>
			<line class="st2" x1="728" y1="350" x2="619.2" y2="401.9"/>
		</g>
		<text transform="matrix(1 0 0 1 739.0205 345.9263)" class="st0 st1">Austria</text>
	</g>
	<g id="Cyprus_1_">
		<g>
			<line class="st2" x1="184.1" y1="447.8" x2="75.4" y2="510.1"/>
			<line class="st2" x1="292.9" y1="445.6" x2="184.1" y2="447.8"/>
			<line class="st2" x1="401.7" y1="436.7" x2="292.9" y2="445.6"/>
			<line class="st2" x1="510.4" y1="383.9" x2="401.7" y2="436.7"/>
			<line class="st2" x1="619.2" y1="346.5" x2="510.4" y2="383.9"/>
			<line class="st2" x1="728" y1="332.8" x2="619.2" y2="346.5"/>
		</g>
		<g>
			<text transform="matrix(1 0 0 1 739.0205 332.9263)" class="st0 st1">Cyprus</text>
		</g>
	</g>
	<g id="Malta">
		<g>
			<line class="st2" x1="184.1" y1="447.8" x2="75.4" y2="485.3"/>
			<line class="st2" x1="292.9" y1="416" x2="184.1" y2="447.8"/>
			<line class="st2" x1="401.7" y1="390.4" x2="292.9" y2="416"/>
			<line class="st2" x1="510.4" y1="353.1" x2="401.7" y2="390.4"/>
			<line class="st2" x1="619.2" y1="388.1" x2="510.4" y2="353.1"/>
			<line class="st2" x1="728" y1="308.3" x2="619.2" y2="388.1"/>
		</g>
		<g>
			<text transform="matrix(1 0 0 1 739.0205 319.9263)" class="st0 st1">Malta</text>
		</g>
	</g>
	<g id="Hungary">
		<g>
			<line class="st2" x1="184.1" y1="426.3" x2="75.4" y2="442.8"/>
			<line class="st2" x1="292.9" y1="384.5" x2="184.1" y2="426.3"/>
			<line class="st2" x1="401.7" y1="358.3" x2="292.9" y2="384.5"/>
			<line class="st2" x1="510.4" y1="350.9" x2="401.7" y2="358.3"/>
			<line class="st2" x1="619.2" y1="309.1" x2="510.4" y2="350.9"/>
			<line class="st2" x1="728" y1="300.5" x2="619.2" y2="309.1"/>
		</g>
		<g>
			<text transform="matrix(1 0 0 1 739.0205 308.9263)" class="st0 st1">Hungary</text>
		</g>
	</g>
	<g id="Latvia">
		<g>
			<line class="st2" x1="184.1" y1="368.1" x2="75.4" y2="352.4"/>
			<line class="st2" x1="292.9" y1="340" x2="184.1" y2="368.1"/>
			<line class="st2" x1="401.7" y1="325.4" x2="292.9" y2="340"/>
			<line class="st2" x1="510.4" y1="299.4" x2="401.7" y2="325.4"/>
			<line class="st2" x1="619.2" y1="328.5" x2="510.4" y2="299.4"/>
			<line class="st2" x1="728" y1="293.3" x2="619.2" y2="328.5"/>
		</g>
		<g>
			<text transform="matrix(1 0 0 1 739.0205 297.9263)" class="st0 st1">Latvia</text>
		</g>
	</g>
	<g id="Slovack_Republic">
		<g>
			<line class="st2" x1="184.1" y1="459.3" x2="75.4" y2="475.3"/>
			<line class="st2" x1="292.9" y1="425.6" x2="184.1" y2="459.3"/>
			<line class="st2" x1="401.7" y1="402.9" x2="292.9" y2="425.6"/>
			<line class="st2" x1="510.4" y1="346.4" x2="401.7" y2="402.9"/>
			<line class="st2" x1="619.2" y1="315.4" x2="510.4" y2="346.4"/>
			<line class="st2" x1="728" y1="292.2" x2="619.2" y2="315.4"/>
		</g>
		<g>
			<text transform="matrix(1 0 0 1 739.0205 286.9263)" class="st0 st1">Slovack Republic</text>
		</g>
	</g>
	<g id="Irland">
		<g>
			<line class="st2" x1="184.1" y1="362.6" x2="75.4" y2="425.1"/>
			<line class="st2" x1="292.9" y1="337.4" x2="184.1" y2="362.6"/>
			<line class="st2" x1="401.7" y1="320.9" x2="292.9" y2="337.4"/>
			<line class="st2" x1="510.4" y1="303" x2="401.7" y2="320.9"/>
			<line class="st2" x1="619.2" y1="297.6" x2="510.4" y2="303"/>
			<line class="st2" x1="728" y1="272.2" x2="619.2" y2="297.6"/>
		</g>
		<g>
			<text transform="matrix(1 0 0 1 739.0205 271.9263)" class="st0 st1">Irland</text>
		</g>
	</g>
	<g id="Austria_1_">
		<g>
			<line class="st2" x1="184.1" y1="314.8" x2="75.4" y2="359.1"/>
			<line class="st2" x1="292.9" y1="298.8" x2="184.1" y2="314.8"/>
			<line class="st2" x1="401.7" y1="291.5" x2="292.9" y2="298.8"/>
			<line class="st2" x1="510.4" y1="286.8" x2="401.7" y2="291.5"/>
			<line class="st2" x1="619.2" y1="250.3" x2="510.4" y2="286.8"/>
			<line class="st2" x1="728" y1="245.5" x2="619.2" y2="250.3"/>
		</g>
		<text transform="matrix(1 0 0 1 739.0205 249.9263)" class="st0 st1">Austria</text>
	</g>
	<g id="France">
		<g>
			<line class="st2" x1="184.1" y1="326.2" x2="75.4" y2="332.9"/>
			<line class="st2" x1="292.9" y1="281.3" x2="184.1" y2="326.2"/>
			<line class="st2" x1="401.7" y1="275.3" x2="292.9" y2="281.3"/>
			<line class="st2" x1="510.4" y1="252.6" x2="401.7" y2="275.3"/>
			<line class="st2" x1="619.2" y1="240.9" x2="510.4" y2="252.6"/>
			<line class="st2" x1="728" y1="229.4" x2="619.2" y2="240.9"/>
		</g>
		<text transform="matrix(1 0 0 1 739.0205 233.9263)" class="st0 st1">France</text>
	</g>
	<g id="Belgium">
		<g>
			<line class="st2" x1="184.1" y1="279.2" x2="75.4" y2="361.2"/>
			<line class="st2" x1="292.9" y1="290.2" x2="184.1" y2="279.2"/>
			<line class="st2" x1="401.7" y1="272.2" x2="292.9" y2="290.2"/>
			<line class="st2" x1="510.4" y1="237.1" x2="401.7" y2="272.2"/>
			<line class="st2" x1="619.2" y1="236.5" x2="510.4" y2="237.1"/>
			<line class="st2" x1="728" y1="218.3" x2="619.2" y2="236.5"/>
		</g>
		<text transform="matrix(1 0 0 1 739.0205 223.9263)" class="st0 st1">Belgium</text>
	</g>
	<g id="Estonia">
		<g>
			<line class="st2" x1="184.1" y1="342.6" x2="75.4" y2="372.4"/>
			<line class="st2" x1="292.9" y1="319.1" x2="184.1" y2="342.6"/>
			<line class="st2" x1="401.7" y1="299.1" x2="292.9" y2="319.1"/>
			<line class="st2" x1="510.4" y1="246.5" x2="401.7" y2="299.1"/>
			<line class="st2" x1="619.2" y1="194.8" x2="510.4" y2="246.5"/>
			<line class="st2" x1="728" y1="209.4" x2="619.2" y2="194.8"/>
		</g>
		<text transform="matrix(1 0 0 1 739.0205 212.9263)" class="st0 st1">Estonia</text>
	</g>
	<g id="Finland">
		<g>
			<line class="st2" x1="184.1" y1="191.1" x2="75.4" y2="213.7"/>
			<line class="st2" x1="292.9" y1="176.6" x2="184.1" y2="191.1"/>
			<line class="st2" x1="401.7" y1="156.3" x2="292.9" y2="176.6"/>
			<line class="st2" x1="510.4" y1="218.1" x2="401.7" y2="156.3"/>
			<line class="st2" x1="619.2" y1="219.5" x2="510.4" y2="218.1"/>
			<line class="st2" x1="728" y1="203.6" x2="619.2" y2="219.5"/>
		</g>
		<text transform="matrix(1 0 0 1 739.0205 199.9263)" class="st0 st1">Finland</text>
	</g>
	<g id="Germany">
		<g>
			<line class="st2" x1="184.1" y1="283.4" x2="75.4" y2="274.3"/>
			<line class="st2" x1="292.9" y1="270" x2="184.1" y2="283.4"/>
			<line class="st2" x1="401.7" y1="247.4" x2="292.9" y2="270"/>
			<line class="st2" x1="510.4" y1="222.4" x2="401.7" y2="247.4"/>
			<line class="st2" x1="619.2" y1="205" x2="510.4" y2="222.4"/>
			<line class="st2" x1="728" y1="179.5" x2="619.2" y2="205"/>
		</g>
		<rect x="739" y="175.6" class="st3" width="252" height="15.4"/>
		<text transform="matrix(1 0 0 1 739.0205 184.0664)" class="st0 st1">Germany</text>
	</g>
	<g id="Netherland">
		<g>
			<line class="st2" x1="184.1" y1="157.5" x2="75.4" y2="166.1"/>
			<line class="st2" x1="292.9" y1="139.6" x2="184.1" y2="157.5"/>
			<line class="st2" x1="401.7" y1="126" x2="292.9" y2="139.6"/>
			<line class="st2" x1="510.4" y1="154.4" x2="401.7" y2="126"/>
			<line class="st2" x1="619.2" y1="153.7" x2="510.4" y2="154.4"/>
			<line class="st2" x1="728" y1="170" x2="619.2" y2="153.7"/>
		</g>
		<rect x="740" y="162.6" class="st3" width="252" height="15.4"/>
		<text transform="matrix(1 0 0 1 740.0205 171.0664)" class="st0 st1">Netherland</text>
	</g>
	<g id="Sweden">
		<g>
			<line class="st2" x1="184.1" y1="140.7" x2="75.4" y2="175.1"/>
			<line class="st2" x1="292.9" y1="135.6" x2="184.1" y2="140.7"/>
			<line class="st2" x1="401.7" y1="115.7" x2="292.9" y2="135.6"/>
			<line class="st2" x1="510.4" y1="143.8" x2="401.7" y2="115.7"/>
			<line class="st2" x1="619.2" y1="167.5" x2="510.4" y2="143.8"/>
			<line class="st2" x1="728" y1="156.4" x2="619.2" y2="167.5"/>
		</g>
		<text transform="matrix(1 0 0 1 740.0205 157.9263)" class="st0 st1">Sweden</text>
	</g>
	<g id="United_Kingdom">
		<g>
			<line class="st2" x1="184.1" y1="232.4" x2="75.4" y2="237.1"/>
			<line class="st2" x1="292.9" y1="206.3" x2="184.1" y2="232.4"/>
			<line class="st2" x1="401.7" y1="177" x2="292.9" y2="206.3"/>
			<line class="st2" x1="510.4" y1="155.1" x2="401.7" y2="177"/>
			<line class="st2" x1="619.2" y1="150.3" x2="510.4" y2="155.1"/>
			<line class="st2" x1="728" y1="115.8" x2="619.2" y2="150.3"/>
		</g>
		<text transform="matrix(1 0 0 1 739.0205 114.2959)" class="st0 st1">United Kingdom</text>
	</g>
	<g id="Denmark">
		<g>
			<line class="st2" x1="184.1" y1="177.4" x2="75.4" y2="191"/>
			<line class="st2" x1="292.9" y1="147" x2="184.1" y2="177.4"/>
			<line class="st2" x1="401.7" y1="117.6" x2="292.9" y2="147"/>
			<line class="st2" x1="510.4" y1="100.8" x2="401.7" y2="117.6"/>
			<line class="st2" x1="619.2" y1="96.5" x2="510.4" y2="100.8"/>
			<line class="st2" x1="728" y1="88.6" x2="619.2" y2="96.5"/>
		</g>
		<rect x="739" y="87.6" class="st3" width="252" height="15.4"/>
		<text transform="matrix(1 0 0 1 739.0205 96.0664)" class="st0 st1">Denmark</text>
	</g>
	<g id="Luxembourg">
		<g>
			<line class="st2" x1="181.1" y1="177.7" x2="78" y2="170.4"/>
			<line class="st2" x1="289.9" y1="153.9" x2="181.1" y2="177.7"/>
			<line class="st2" x1="398.7" y1="131.2" x2="289.9" y2="153.9"/>
			<line class="st2" x1="507.4" y1="120.1" x2="398.7" y2="131.2"/>
			<line class="st2" x1="616.2" y1="87.1" x2="507.4" y2="120.1"/>
			<line class="st2" x1="725" y1="85.1" x2="616.2" y2="87.1"/>
		</g>
		<g>
			<text transform="matrix(1 0 0 1 739.0205 83.9263)" class="st0 st1">Luxembourg</text>
		</g>
	</g>
	<g id="Average">
		<g>
			<g>
				<line class="st4" x1="185.6" y1="336.8" x2="77" y2="354.6"/>
				<line class="st4" x1="294.3" y1="313.6" x2="185.6" y2="336.8"/>
				<line class="st4" x1="402.9" y1="293.5" x2="294.3" y2="313.6"/>
				<line class="st4" x1="511.5" y1="278" x2="402.9" y2="293.5"/>
				<line class="st4" x1="620.1" y1="265.4" x2="511.5" y2="278"/>
				<line class="st4" x1="728.7" y1="245.6" x2="620.1" y2="265.4"/>
			</g>
			<rect x="179" y="332" class="st5" width="9" height="9"/>
			<rect x="288" y="309" class="st5" width="9" height="9"/>
			<rect x="396" y="289" class="st5" width="9" height="9"/>
			<rect x="505" y="273" class="st5" width="9" height="9"/>
			<rect x="614" y="261" class="st5" width="9" height="9"/>
			<rect x="723" y="241" class="st5" width="9" height="9"/>
		</g>
		<g>
			<g>
				<polygon class="st6" points="101.6,348.3 85.6,351 74,362.6 74,375.9 				"/>
				<polygon class="st6" points="142.8,341.7 127.1,344 74,397.2 74,410.5 				"/>
				<polygon class="st6" points="74,445.1 184,335 168.5,337.2 74,431.7 				"/>
				<polygon class="st6" points="74,479.7 228.1,325.6 211.2,329.2 74,466.3 				"/>
				<polygon class="st6" points="74,514.2 272.1,316.1 255.3,319.6 74,500.9 				"/>
				<polygon class="st6" points="74,548.8 315.2,307.6 298.9,310.6 74,535.5 				"/>
				<path class="st6" d="M359.9,297.5c-5,0.3-10,0.9-15,1.6l-3.5,3.5l16.4-3L359.9,297.5z"/>
				<polygon class="st6" points="74,583.4 357.8,299.6 341.5,302.6 74,570.1 				"/>
				<polygon class="st6" points="74,618 400.2,291.8 383.9,294.8 74,604.6 				"/>
				<polygon class="st6" points="74,652.6 440.7,285.9 425.3,287.9 74,639.2 				"/>
				<polygon class="st6" points="74,687.1 481.1,280.1 465.4,282.4 74,673.8 				"/>
				<polygon class="st6" points="74,721.7 521.1,274.6 505.8,276.6 74,708.4 				"/>
				<polygon class="st6" points="74,756.3 560.1,270.2 545.1,271.9 74,743 				"/>
				<polygon class="st6" points="74,790.9 599.2,265.7 584.1,267.4 74,777.6 				"/>
				<polygon class="st6" points="74,825.5 639.9,259.5 623.6,262.6 74,812.1 				"/>
				<polygon class="st6" points="74,860.1 682.1,251.9 665.9,254.9 74,846.7 				"/>
				<polygon class="st6" points="74,894.6 724.5,244.1 708.2,247.1 74,881.3 				"/>
				<polygon class="st6" points="74,915.9 74,929.2 728,275.2 728,261.9 				"/>
				<polygon class="st6" points="74,963.8 728,309.8 728,296.5 74,950.5 				"/>
				<polygon class="st6" points="74,998.4 728,344.4 728,331 74,985 				"/>
				<polygon class="st6" points="74,1033 728,379 728,365.6 74,1019.6 				"/>
				<polygon class="st6" points="95.5,1046 728,413.5 728,400.2 82.2,1046 				"/>
				<polygon class="st6" points="130.1,1046 728,448.1 728,434.8 116.8,1046 				"/>
				<polygon class="st6" points="164.7,1046 728,482.7 728,469.4 151.4,1046 				"/>
				<polygon class="st6" points="199.3,1046 728,517.3 728,503.9 185.9,1046 				"/>
				<polygon class="st6" points="233.9,1046 728,551.9 728,538.5 220.5,1046 				"/>
				<polygon class="st6" points="268.4,1046 728,586.4 728,573.1 255.1,1046 				"/>
				<polygon class="st6" points="303,1046 728,621 728,607.7 289.7,1046 				"/>
				<polygon class="st6" points="337.6,1046 728,655.6 728,642.3 324.3,1046 				"/>
				<polygon class="st6" points="372.2,1046 728,690.2 728,676.9 358.9,1046 				"/>
				<polygon class="st6" points="406.8,1046 728,724.8 728,711.4 393.4,1046 				"/>
				<polygon class="st6" points="441.4,1046 728,759.4 728,746 428,1046 				"/>
				<polygon class="st6" points="475.9,1046 728,793.9 728,780.6 462.6,1046 				"/>
				<polygon class="st6" points="510.5,1046 728,828.5 728,815.2 497.2,1046 				"/>
				<polygon class="st6" points="545.1,1046 728,863.1 728,849.8 531.8,1046 				"/>
				<polygon class="st6" points="579.7,1046 728,897.7 728,884.3 566.3,1046 				"/>
				<polygon class="st6" points="614.3,1046 728,932.3 728,918.9 600.9,1046 				"/>
				<polygon class="st6" points="648.8,1046 728,966.8 728,953.5 635.5,1046 				"/>
				<polygon class="st6" points="683.4,1046 728,1001.4 728,988.1 670.1,1046 				"/>
				<polygon class="st6" points="718,1046 728,1036 728,1022.7 704.7,1046 				"/>
			</g>
		</g>
	</g>
</g>
<g id="CHART-GRID">
	<line class="st7" x1="75" y1="1043.6" x2="75" y2="51"/>
	<g>
	</g>
	<g>
		<rect x="45" y="1050.6" class="st3" width="49" height="22.4"/>
		<text transform="matrix(1 0 0 1 58.5723 1059.0659)" class="st0 st1">2010</text>
	</g>
	<g>
		<rect x="157" y="1050.6" class="st3" width="49" height="22.4"/>
		<text transform="matrix(1 0 0 1 171.7549 1059.0659)" class="st0 st1">2011</text>
	</g>
	<g>
		<rect x="267" y="1050.6" class="st3" width="49" height="22.4"/>
		<text transform="matrix(1 0 0 1 280.7881 1059.0659)" class="st0 st1">2012</text>
	</g>
	<g>
		<rect x="376" y="1050.6" class="st3" width="49" height="22.4"/>
		<text transform="matrix(1 0 0 1 389.6807 1059.0659)" class="st0 st1">2013</text>
	</g>
	<g>
		<rect x="484" y="1050.6" class="st3" width="49" height="22.4"/>
		<text transform="matrix(1 0 0 1 497.5361 1059.0659)" class="st0 st1">2014</text>
	</g>
	<g>
		<rect x="595" y="1050.6" class="st3" width="49" height="22.4"/>
		<text transform="matrix(1 0 0 1 608.7646 1059.0659)" class="st0 st1">2015</text>
	</g>
	<g>
		<rect x="702" y="1050.6" class="st3" width="49" height="22.4"/>
		<text transform="matrix(1 0 0 1 715.6748 1059.0659)" class="st0 st1">2016</text>
	</g>
	<polygon class="st7" points="189.7,1043.3 178.3,1043.3 184,1033.4 	"/>
	<polygon class="st7" points="297.7,1043.3 286.3,1043.3 292,1033.4 	"/>
	<polygon class="st7" points="406.7,1043.3 395.3,1043.3 401,1033.4 	"/>
	<polygon class="st7" points="515.7,1043.3 504.3,1043.3 510,1033.4 	"/>
	<polygon class="st7" points="624.7,1043.3 613.3,1043.3 619,1033.4 	"/>
	<polygon class="st7" points="80.7,1043.3 69.3,1043.3 75,1033.4 	"/>
	<polygon class="st7" points="732.7,1042.3 721.3,1042.3 727,1032.4 	"/>
	<g>
		<rect x="35.8" y="1036" class="st3" width="28.7" height="30.2"/>
		<text transform="matrix(1 0 0 1 39.9609 1044.4751)" class="st0 st1">20%</text>
	</g>
	<g>
		<g>
			<path class="st7" d="M94,795.5"/>
			<path class="st7" d="M75,795.5"/>
			<line class="st7" x1="75" y1="547.3" x2="94" y2="547.3"/>
			<line class="st7" x1="75" y1="299.2" x2="94" y2="299.2"/>
			<path class="st7" d="M94,51"/>
			<path class="st7" d="M75,51"/>
		</g>
	</g>
	<g>
		<line class="st8" x1="184.1" y1="417.2" x2="75.4" y2="437.9"/>
		<line class="st8" x1="292.9" y1="380.7" x2="184.1" y2="417.2"/>
		<line class="st8" x1="401.7" y1="372.2" x2="292.9" y2="380.7"/>
		<line class="st8" x1="510.4" y1="370.7" x2="401.7" y2="372.2"/>
		<line class="st8" x1="619.2" y1="352.9" x2="510.4" y2="370.7"/>
		<line class="st8" x1="728" y1="342.8" x2="619.2" y2="352.9"/>
	</g>
	<g>
		<g>
			<path class="st9" d="M566.4,403.1"/>
			<path class="st9" d="M562.1,409.2"/>
		</g>
	</g>
	<g>
		<g>
			<path class="st10" d="M566.4,428.7"/>
		</g>
	</g>
	<path class="st11" d="M74.5,919.5"/>
	<path class="st11" d="M88.5,919.5"/>
	<path class="st11" d="M89,423.5"/>
	<path class="st11" d="M75,174.5"/>
	<path class="st11" d="M89,174.5"/>
	<g>
		<rect x="35.8" y="788" class="st3" width="28.7" height="30.2"/>
		<text transform="matrix(1 0 0 1 39.709 796.4751)" class="st0 st1">40%</text>
	</g>
	<g>
		<rect x="39.8" y="536.5" class="st3" width="28.7" height="30.2"/>
		<text transform="matrix(1 0 0 1 43.8477 544.8984)" class="st0 st1">60%</text>
	</g>
	<g>
		<rect x="43.8" y="294.4" class="st3" width="28.7" height="30.2"/>
		<text transform="matrix(1 0 0 1 47.7158 302.8662)" class="st0 st1">80%</text>
	</g>
	<g>
		<rect x="36.8" y="48" class="st3" width="43.9" height="46.1"/>
		<text transform="matrix(1 0 0 1 46.3662 56.436)" class="st0 st1">100%</text>
	</g>
	<g>
		<g>
			<line class="st12" x1="183.5" y1="1031" x2="183.5" y2="1030"/>
			<line class="st13" x1="183.5" y1="1020" x2="183.5" y2="57"/>
			<line class="st12" x1="183.5" y1="52" x2="183.5" y2="51"/>
		</g>
	</g>
	<g>
		<g>
			<line class="st12" x1="292.5" y1="1031" x2="292.5" y2="1030"/>
			<line class="st13" x1="292.5" y1="1020" x2="292.5" y2="57"/>
			<line class="st12" x1="292.5" y1="52" x2="292.5" y2="51"/>
		</g>
	</g>
	<g>
		<g>
			<line class="st12" x1="400.5" y1="1031" x2="400.5" y2="1030"/>
			<line class="st13" x1="400.5" y1="1020" x2="400.5" y2="57"/>
			<line class="st12" x1="400.5" y1="52" x2="400.5" y2="51"/>
		</g>
	</g>
	<g>
		<g>
			<line class="st12" x1="510.5" y1="1031" x2="510.5" y2="1030"/>
			<line class="st13" x1="510.5" y1="1020" x2="510.5" y2="57"/>
			<line class="st12" x1="510.5" y1="52" x2="510.5" y2="51"/>
		</g>
	</g>
	<g>
		<g>
			<line class="st12" x1="618.5" y1="1031" x2="618.5" y2="1030"/>
			<line class="st13" x1="618.5" y1="1020" x2="618.5" y2="57"/>
			<line class="st12" x1="618.5" y1="52" x2="618.5" y2="51"/>
		</g>
	</g>
	<line class="st14" x1="727.5" y1="1032" x2="727.5" y2="57"/>
	<polygon class="st7" points="85.6,795 75.7,800.7 75.7,789.3 	"/>
	<g>
		<g>
			<line class="st15" x1="728" y1="174.5" x2="727" y2="174.5"/>
			<line class="st16" x1="716.9" y1="174.5" x2="81" y2="174.5"/>
			<line class="st15" x1="76" y1="174.5" x2="75" y2="174.5"/>
		</g>
	</g>
	<g>
		<g>
			<line class="st15" x1="728" y1="299.5" x2="727" y2="299.5"/>
			<line class="st16" x1="716.9" y1="299.5" x2="81" y2="299.5"/>
			<line class="st15" x1="76" y1="299.5" x2="75" y2="299.5"/>
		</g>
	</g>
	<g>
		<g>
			<line class="st15" x1="729" y1="423.5" x2="728" y2="423.5"/>
			<line class="st16" x1="717.9" y1="423.5" x2="82" y2="423.5"/>
			<line class="st15" x1="77" y1="423.5" x2="76" y2="423.5"/>
		</g>
	</g>
	<g>
		<g>
			<line class="st15" x1="732" y1="547.5" x2="731" y2="547.5"/>
			<line class="st16" x1="720.9" y1="547.5" x2="85" y2="547.5"/>
			<line class="st15" x1="80" y1="547.5" x2="79" y2="547.5"/>
		</g>
	</g>
	<g>
		<g>
			<line class="st15" x1="728" y1="674.5" x2="727" y2="674.5"/>
			<line class="st17" x1="716.9" y1="674.5" x2="81.5" y2="674.5"/>
			<line class="st15" x1="76.5" y1="674.5" x2="75.5" y2="674.5"/>
		</g>
	</g>
	<g>
		<g>
			<line class="st15" x1="727" y1="796.5" x2="726" y2="796.5"/>
			<line class="st16" x1="715.9" y1="796.5" x2="80" y2="796.5"/>
			<line class="st15" x1="75" y1="796.5" x2="74" y2="796.5"/>
		</g>
	</g>
	<g>
		<g>
			<line class="st15" x1="728" y1="919.5" x2="727" y2="919.5"/>
			<line class="st16" x1="716.9" y1="919.5" x2="81" y2="919.5"/>
			<line class="st15" x1="76" y1="919.5" x2="75" y2="919.5"/>
		</g>
	</g>
	<polygon class="st7" points="85.6,920 75.7,925.7 75.7,914.3 	"/>
	<polygon class="st7" points="84.6,675 74.7,680.7 74.7,669.3 	"/>
	<polygon class="st7" points="85.6,548 75.7,553.7 75.7,542.3 	"/>
	<polygon class="st7" points="85.6,424 75.7,429.7 75.7,418.3 	"/>
	<polygon class="st7" points="85.6,299 75.7,304.7 75.7,293.3 	"/>
	<polygon class="st7" points="84.6,175 74.7,180.7 74.7,169.3 	"/>
	<polygon class="st7" points="84.6,51 74.7,56.7 74.7,45.3 	"/>
	<g>
		<rect x="35.8" y="917" class="st3" width="28.7" height="30.2"/>
		<text transform="matrix(1 0 0 1 39.9375 925.4751)" class="st0 st1">50%</text>
	</g>
	<g>
		<rect x="41.8" y="669" class="st3" width="28.7" height="30.2"/>
		<text transform="matrix(1 0 0 1 45.9375 677.4751)" class="st0 st1">50%</text>
	</g>
	<g>
		<rect x="41.8" y="419.5" class="st3" width="28.7" height="30.2"/>
		<text transform="matrix(1 0 0 1 46.5498 427.8984)" class="st0 st1">70%</text>
	</g>
	<g>
		<rect x="38.8" y="168.4" class="st3" width="28.7" height="30.2"/>
		<text transform="matrix(1 0 0 1 42.8477 176.8662)" class="st0 st1">90%</text>
	</g>
</g>
</svg>
